# xmcd CD database file
#
# Track frame offsets:
#	150
#	18453
#	42368
#	63586
#	86744
#	104213
#	139476
#	153919
#	167968
#	188993
#	210698
#	228879
#	250300
#	269882
#	295142
#
# Disc length: 4238 seconds
#
# Revision: 0
# Processed by: cddbd v1.5.2PL0 Copyright (c) Steve Scherf et al.
# Submitted via: CdAid (MTCDDB.DLL V2003.12.21)
#
DISCID=ec108c0f
DTITLE=Midge Ure and Ultravox - Finest [CD2]
DYEAR=2004
DGENRE=Rock
TTITLE0=Overlook
TTITLE1=Passing Strangers
TTITLE2=Lament
TTITLE3=Heart Of The Country
TTITLE4=White China
TTITLE5=One Small Day
TTITLE6=Building
TTITLE7=Loves Great Adventure
TTITLE8=Same Old Story
TTITLE9=All Fall Down
TTITLE10=No Regrets
TTITLE11=Fade To Grey
TTITLE12=Call Of The Wild
TTITLE13=The Man Who Sold The World
TTITLE14=Dear God
EXTD=(70:36) YEAR: 2004 ID3G:  17
EXTT0=
EXTT1=(Live)
EXTT2=
EXTT3=
EXTT4=
EXTT5=(12" Version)
EXTT6=
EXTT7=
EXTT8=
EXTT9=(Live)
EXTT10=
EXTT11=(Live)
EXTT12=
EXTT13=
EXTT14=
PLAYORDER=
